<?xml version="1.0" encoding="UTF-8"?>
<svg width="12px" height="24px" viewBox="0 0 12 24" version="1.1" xmlns="http://www.w3.org/2000/svg" xmlns:xlink="http://www.w3.org/1999/xlink">
    <!-- Generator: sketchtool 52.2 (67145) - http://www.bohemiancoding.com/sketch -->
    <title>72BBB6F6-6518-423F-BE24-D9DA8572A51D</title>
    <desc>Created with sketchtool.</desc>
    <g id="PC" stroke="none" stroke-width="1" fill="none" fill-rule="evenodd">
        <g id="Форма-заявки" transform="translate(-122.000000, -803.000000)" fill="#FFFFFF">
            <g id="attach-file" transform="translate(122.000000, 803.000000)">
                <g id="Icons/attach_file">
                    <path d="M10.379085,5.46405229 L12,5.46405229 L12,17.9607843 C12,19.058829 11.7342075,20.0697122 11.2026144,20.9934641 C10.6710213,21.9172159 9.94771699,22.6492348 9.03267974,23.1895425 C8.11764248,23.7298502 7.11983111,24 6.03921569,24 C4.95860026,24 3.95643163,23.7298502 3.03267974,23.1895425 C2.10892784,22.6492348 1.37255176,21.9172159 0.823529412,20.9934641 C0.274507059,20.0697122 0,19.058829 0,17.9607843 L0,4.39215686 C0,3.60783922 0.200433725,2.88017765 0.60130719,2.20915033 C1.00218065,1.53812301 1.53812301,1.00218065 2.20915033,0.60130719 C2.88017765,0.200433725 3.60783922,0 4.39215686,0 C5.17647451,0 5.89977882,0.196076471 6.5620915,0.588235294 C7.22440418,0.980394118 7.75163203,1.51633647 8.14379085,2.19607843 C8.53594967,2.87582039 8.73202614,3.60783922 8.73202614,4.39215686 L8.73202614,15.8169935 C8.73202614,16.3050133 8.61002301,16.7581678 8.36601307,17.1764706 C8.12200314,17.5947733 7.79520902,17.9259247 7.38562092,18.1699346 C6.97603281,18.4139446 6.52723556,18.5359477 6.03921569,18.5359477 C5.55119582,18.5359477 5.09368405,18.4139446 4.66666667,18.1699346 C4.23964928,17.9259247 3.8997834,17.5947733 3.64705882,17.1764706 C3.39433425,16.7581678 3.26797386,16.3050133 3.26797386,15.8169935 L3.26797386,5.46405229 L4.91503268,5.46405229 L4.91503268,15.8169935 C4.91503268,16.1307205 5.02396405,16.3877986 5.24183007,16.5882353 C5.45969608,16.788672 5.72548863,16.8888889 6.03921569,16.8888889 C6.35294275,16.8888889 6.61002078,16.788672 6.81045752,16.5882353 C7.01089425,16.3877986 7.11111111,16.1307205 7.11111111,15.8169935 L7.11111111,4.39215686 C7.11111111,3.90413699 6.98910797,3.44662523 6.74509804,3.01960784 C6.5010881,2.59259046 6.16993673,2.25272458 5.75163399,2 C5.33333124,1.74727542 4.88017673,1.62091503 4.39215686,1.62091503 C3.90413699,1.62091503 3.45098248,1.74727542 3.03267974,2 C2.61437699,2.25272458 2.27886837,2.59259046 2.02614379,3.01960784 C1.77341922,3.44662523 1.64705882,3.90413699 1.64705882,4.39215686 L1.64705882,17.9607843 C1.64705882,18.745102 1.84749255,19.4771208 2.24836601,20.1568627 C2.64923948,20.8366047 3.18518183,21.3769043 3.85620915,21.7777778 C4.52723647,22.1786512 5.25489804,22.379085 6.03921569,22.379085 C6.82353333,22.379085 7.54683765,22.1786512 8.20915033,21.7777778 C8.87146301,21.3769043 9.39869085,20.8366047 9.79084967,20.1568627 C10.1830085,19.4771208 10.379085,18.745102 10.379085,17.9607843 L10.379085,5.46405229 Z" id="Icons/attach_file/default"></path>
                </g>
            </g>
        </g>
    </g>
</svg>